<?xml version="1.0" standalone="no"?>
<!DOCTYPE svg PUBLIC "-//W3C//DTD SVG 20010904//EN"
 "http://www.w3.org/TR/2001/REC-SVG-20010904/DTD/svg10.dtd">
<svg version="1.0" xmlns="http://www.w3.org/2000/svg"
 width="800.000000pt" height="600.000000pt" viewBox="0 0 800.000000 600.000000"
 preserveAspectRatio="xMidYMid meet">

<g transform="translate(0.000000,600.000000) scale(0.100000,-0.100000)"
fill="#000000" stroke="none">
<path d="M3775 5686 c-116 -37 -212 -125 -297 -272 -106 -182 -143 -434 -99
-662 41 -213 86 -322 332 -812 189 -379 298 -607 350 -735 20 -49 24 -77 24
-155 0 -85 -3 -101 -29 -150 -16 -30 -40 -70 -54 -88 -26 -34 -127 -112 -145
-112 -15 0 -1 133 18 169 8 17 12 31 8 31 -5 0 -8 28 -8 63 0 45 -6 75 -24
112 -33 68 -128 157 -209 197 -63 31 -72 33 -172 32 -274 -2 -496 -132 -545
-320 -16 -63 -8 -138 21 -195 33 -65 128 -122 270 -161 66 -18 105 -21 239
-21 138 0 172 4 250 25 50 14 97 28 106 32 14 6 18 -1 24 -40 11 -74 62 -222
101 -291 40 -72 125 -167 192 -217 68 -50 195 -111 303 -146 164 -54 344 -79
713 -100 285 -16 429 -35 656 -87 54 -13 210 -82 263 -117 201 -134 295 -347
242 -550 -64 -243 -308 -451 -622 -528 -114 -28 -310 -30 -428 -4 -196 43
-386 161 -436 271 -18 40 -19 40 -19 10 0 -37 46 -119 92 -162 168 -160 522
-234 810 -168 195 44 365 140 495 279 127 136 183 264 183 416 0 156 -52 275
-174 395 -68 68 -98 89 -186 132 -122 60 -192 84 -328 112 -177 36 -349 54
-647 66 -630 26 -955 161 -1103 458 -33 67 -75 188 -86 248 -6 36 -6 37 50 68
175 100 249 270 199 459 -21 78 -154 366 -292 632 -53 102 -132 255 -176 340
-263 511 -318 878 -176 1195 62 138 169 259 278 313 53 25 64 27 190 27 118 0
129 1 95 12 -52 15 -199 15 -249 -1z m-174 -2421 c88 -31 183 -120 221 -205
17 -38 19 -57 13 -125 -3 -44 -7 -118 -8 -165 l-2 -85 -54 -18 c-88 -29 -204
-40 -371 -34 -133 4 -165 9 -230 31 -195 69 -267 190 -206 345 46 118 125 188
266 236 133 45 277 53 371 20z"/>
</g>
</svg>
